# MagicaVoxel @ Ephtracy

# group
o 

# material
mtllib item.mtl
usemtl palette

# normals
vn -1 0 0
vn 1 0 0
vn 0 0 1
vn 0 0 -1
vn 0 -1 0
vn 0 1 0

# texcoords
vt 0.0214844 0.5
vt 0.841797 0.5

# verts
v -0.3 0 0.4
v -0.3 0 0.1
v -0.3 0 0
v -0.3 0 -0.3
v -0.3 0.5 0.4
v -0.3 0.5 0.3
v -0.3 0.5 -0.2
v -0.3 0.5 -0.3
v -0.3 0.6 0.3
v -0.3 0.6 0.1
v -0.3 0.6 0
v -0.3 0.6 -0.2
v -0.2 0.5 0.4
v -0.2 0.5 0.3
v -0.2 0.5 -0.2
v -0.2 0.5 -0.3
v -0.2 0.6 0.4
v -0.2 0.6 0.3
v -0.2 0.6 0.1
v -0.2 0.6 0
v -0.2 0.6 -0.2
v -0.2 0.6 -0.3
v -0.2 0.7 0.3
v -0.2 0.7 0.1
v -0.2 0.7 0
v -0.2 0.7 -0.2
v 0 0.7 0.4
v 0 0.7 0.3
v 0 0.7 0.1
v 0 0.7 0
v 0 0.7 -0.2
v 0 0.7 -0.3
v 0 0.9 0.4
v 0 0.9 0.3
v 0 0.9 0.1
v 0 0.9 0
v 0 0.9 -0.2
v 0 0.9 -0.3
v 0 1 0.3
v 0 1 0.1
v 0 1 0
v 0 1 -0.2
v 0.1 0.7 0.4
v 0.1 0.7 0.3
v 0.1 0.7 0.1
v 0.1 0.7 0
v 0.1 0.7 -0.2
v 0.1 0.7 -0.3
v 0.1 0.9 0.4
v 0.1 0.9 0.3
v 0.1 0.9 0.1
v 0.1 0.9 0
v 0.1 0.9 -0.2
v 0.1 0.9 -0.3
v 0.1 1 0.3
v 0.1 1 0.1
v 0.1 1 0
v 0.1 1 -0.2
v 0.3 0.5 0.4
v 0.3 0.5 0.3
v 0.3 0.5 -0.2
v 0.3 0.5 -0.3
v 0.3 0.6 0.4
v 0.3 0.6 0.3
v 0.3 0.6 0.1
v 0.3 0.6 0
v 0.3 0.6 -0.2
v 0.3 0.6 -0.3
v 0.3 0.7 0.3
v 0.3 0.7 0.1
v 0.3 0.7 0
v 0.3 0.7 -0.2
v 0.4 0 0.4
v 0.4 0 0.1
v 0.4 0 0
v 0.4 0 -0.3
v 0.4 0.5 0.4
v 0.4 0.5 0.3
v 0.4 0.5 -0.2
v 0.4 0.5 -0.3
v 0.4 0.6 0.3
v 0.4 0.6 0.1
v 0.4 0.6 0
v 0.4 0.6 -0.2
v -0.3 0 0.4
v -0.3 0.5 0.4
v -0.2 0.5 0.4
v -0.2 0.6 0.4
v 0 0 0.4
v 0 0.6 0.4
v 0 0.7 0.4
v 0 0.9 0.4
v 0.1 0 0.4
v 0.1 0.6 0.4
v 0.1 0.7 0.4
v 0.1 0.9 0.4
v 0.3 0.5 0.4
v 0.3 0.6 0.4
v 0.4 0 0.4
v 0.4 0.5 0.4
v -0.3 0.5 0.3
v -0.3 0.6 0.3
v -0.2 0.5 0.3
v -0.2 0.6 0.3
v -0.2 0.7 0.3
v 0 0.6 0.3
v 0 0.7 0.3
v 0 0.9 0.3
v 0 1 0.3
v 0.1 0.6 0.3
v 0.1 0.7 0.3
v 0.1 0.9 0.3
v 0.1 1 0.3
v 0.3 0.5 0.3
v 0.3 0.6 0.3
v 0.3 0.7 0.3
v 0.4 0.5 0.3
v 0.4 0.6 0.3
v 0 0.7 0.1
v 0 0.9 0.1
v 0.1 0.7 0.1
v 0.1 0.9 0.1
v 0 0.9 0
v 0 1 0
v 0.1 0.9 0
v 0.1 1 0
v 0 0.7 -0.2
v 0 0.9 -0.2
v 0.1 0.7 -0.2
v 0.1 0.9 -0.2
v 0 0.7 0.3
v 0 0.9 0.3
v 0.1 0.7 0.3
v 0.1 0.9 0.3
v 0 0.9 0.1
v 0 1 0.1
v 0.1 0.9 0.1
v 0.1 1 0.1
v 0 0.7 0
v 0 0.9 0
v 0.1 0.7 0
v 0.1 0.9 0
v -0.3 0.5 -0.2
v -0.3 0.6 -0.2
v -0.2 0.5 -0.2
v -0.2 0.6 -0.2
v -0.2 0.7 -0.2
v 0 0.6 -0.2
v 0 0.7 -0.2
v 0 0.9 -0.2
v 0 1 -0.2
v 0.1 0.6 -0.2
v 0.1 0.7 -0.2
v 0.1 0.9 -0.2
v 0.1 1 -0.2
v 0.3 0.5 -0.2
v 0.3 0.6 -0.2
v 0.3 0.7 -0.2
v 0.4 0.5 -0.2
v 0.4 0.6 -0.2
v -0.3 0 -0.3
v -0.3 0.5 -0.3
v -0.2 0.5 -0.3
v -0.2 0.6 -0.3
v 0 0 -0.3
v 0 0.6 -0.3
v 0 0.7 -0.3
v 0 0.9 -0.3
v 0.1 0 -0.3
v 0.1 0.6 -0.3
v 0.1 0.7 -0.3
v 0.1 0.9 -0.3
v 0.3 0.5 -0.3
v 0.3 0.6 -0.3
v 0.4 0 -0.3
v 0.4 0.5 -0.3
v -0.3 0 0.4
v 0 0 0.4
v 0.1 0 0.4
v 0.4 0 0.4
v 0 0 0.3
v 0.1 0 0.3
v -0.3 0 0.1
v -0.2 0 0.1
v 0.3 0 0.1
v 0.4 0 0.1
v -0.3 0 0
v -0.2 0 0
v 0.3 0 0
v 0.4 0 0
v 0 0 -0.2
v 0.1 0 -0.2
v -0.3 0 -0.3
v 0 0 -0.3
v 0.1 0 -0.3
v 0.4 0 -0.3
v 0 0.7 0.4
v 0.1 0.7 0.4
v 0 0.7 0.3
v 0.1 0.7 0.3
v 0 0.7 -0.2
v 0.1 0.7 -0.2
v 0 0.7 -0.3
v 0.1 0.7 -0.3
v 0 0.9 0.3
v 0.1 0.9 0.3
v 0 0.9 0.1
v 0.1 0.9 0.1
v 0 0.9 0
v 0.1 0.9 0
v 0 0.9 -0.2
v 0.1 0.9 -0.2
v -0.3 0.5 0.4
v -0.2 0.5 0.4
v 0.3 0.5 0.4
v 0.4 0.5 0.4
v -0.3 0.5 0.3
v -0.2 0.5 0.3
v 0.3 0.5 0.3
v 0.4 0.5 0.3
v -0.3 0.5 -0.2
v -0.2 0.5 -0.2
v 0.3 0.5 -0.2
v 0.4 0.5 -0.2
v -0.3 0.5 -0.3
v -0.2 0.5 -0.3
v 0.3 0.5 -0.3
v 0.4 0.5 -0.3
v -0.2 0.6 0.4
v 0 0.6 0.4
v 0.1 0.6 0.4
v 0.3 0.6 0.4
v -0.3 0.6 0.3
v -0.2 0.6 0.3
v 0 0.6 0.3
v 0.1 0.6 0.3
v 0.3 0.6 0.3
v 0.4 0.6 0.3
v -0.3 0.6 0.1
v -0.2 0.6 0.1
v 0.3 0.6 0.1
v 0.4 0.6 0.1
v -0.3 0.6 0
v -0.2 0.6 0
v 0.3 0.6 0
v 0.4 0.6 0
v -0.3 0.6 -0.2
v -0.2 0.6 -0.2
v 0 0.6 -0.2
v 0.1 0.6 -0.2
v 0.3 0.6 -0.2
v 0.4 0.6 -0.2
v -0.2 0.6 -0.3
v 0 0.6 -0.3
v 0.1 0.6 -0.3
v 0.3 0.6 -0.3
v -0.2 0.7 0.3
v 0 0.7 0.3
v 0.1 0.7 0.3
v 0.3 0.7 0.3
v -0.2 0.7 0.1
v 0 0.7 0.1
v 0.1 0.7 0.1
v 0.3 0.7 0.1
v -0.2 0.7 0
v 0 0.7 0
v 0.1 0.7 0
v 0.3 0.7 0
v -0.2 0.7 -0.2
v 0 0.7 -0.2
v 0.1 0.7 -0.2
v 0.3 0.7 -0.2
v 0 0.9 0.4
v 0.1 0.9 0.4
v 0 0.9 0.3
v 0.1 0.9 0.3
v 0 0.9 0.1
v 0.1 0.9 0.1
v 0 0.9 0
v 0.1 0.9 0
v 0 0.9 -0.2
v 0.1 0.9 -0.2
v 0 0.9 -0.3
v 0.1 0.9 -0.3
v 0 1 0.3
v 0.1 1 0.3
v 0 1 0.1
v 0.1 1 0.1
v 0 1 0
v 0.1 1 0
v 0 1 -0.2
v 0.1 1 -0.2

# faces
f 5/2/1 2/2/1 1/2/1
f 6/2/1 2/2/1 5/2/1
f 7/2/1 4/2/1 3/2/1
f 8/2/1 4/2/1 7/2/1
f 9/2/1 2/2/1 6/2/1
f 10/1/1 3/1/1 2/1/1
f 10/2/1 2/2/1 9/2/1
f 11/2/1 7/2/1 3/2/1
f 11/1/1 3/1/1 10/1/1
f 12/2/1 7/2/1 11/2/1
f 17/2/1 14/2/1 13/2/1
f 18/2/1 14/2/1 17/2/1
f 21/2/1 16/2/1 15/2/1
f 22/2/1 16/2/1 21/2/1
f 23/2/1 19/2/1 18/2/1
f 24/1/1 20/1/1 19/1/1
f 24/2/1 19/2/1 23/2/1
f 25/2/1 21/2/1 20/2/1
f 25/1/1 20/1/1 24/1/1
f 26/2/1 21/2/1 25/2/1
f 33/1/1 28/1/1 27/1/1
f 34/1/1 28/1/1 33/1/1
f 35/1/1 30/1/1 29/1/1
f 36/1/1 30/1/1 35/1/1
f 37/1/1 32/1/1 31/1/1
f 38/1/1 32/1/1 37/1/1
f 39/1/1 35/1/1 34/1/1
f 40/1/1 35/1/1 39/1/1
f 41/1/1 37/1/1 36/1/1
f 42/1/1 37/1/1 41/1/1
f 43/1/2 44/1/2 49/1/2
f 49/1/2 44/1/2 50/1/2
f 45/1/2 46/1/2 51/1/2
f 51/1/2 46/1/2 52/1/2
f 47/1/2 48/1/2 53/1/2
f 53/1/2 48/1/2 54/1/2
f 50/1/2 51/1/2 55/1/2
f 55/1/2 51/1/2 56/1/2
f 52/1/2 53/1/2 57/1/2
f 57/1/2 53/1/2 58/1/2
f 59/2/2 60/2/2 63/2/2
f 63/2/2 60/2/2 64/2/2
f 61/2/2 62/2/2 67/2/2
f 67/2/2 62/2/2 68/2/2
f 64/2/2 65/2/2 69/2/2
f 65/1/2 66/1/2 70/1/2
f 69/2/2 65/2/2 70/2/2
f 66/2/2 67/2/2 71/2/2
f 70/1/2 66/1/2 71/1/2
f 71/2/2 67/2/2 72/2/2
f 73/2/2 74/2/2 77/2/2
f 77/2/2 74/2/2 78/2/2
f 75/2/2 76/2/2 79/2/2
f 79/2/2 76/2/2 80/2/2
f 78/2/2 74/2/2 81/2/2
f 74/1/2 75/1/2 82/1/2
f 81/2/2 74/2/2 82/2/2
f 75/2/2 79/2/2 83/2/2
f 82/1/2 75/1/2 83/1/2
f 83/2/2 79/2/2 84/2/2
f 87/2/3 86/2/3 85/2/3
f 89/2/3 87/2/3 85/2/3
f 89/2/3 88/2/3 87/2/3
f 90/2/3 88/2/3 89/2/3
f 93/1/3 90/1/3 89/1/3
f 94/1/3 90/1/3 93/1/3
f 95/1/3 92/1/3 91/1/3
f 96/1/3 92/1/3 95/1/3
f 97/2/3 94/2/3 93/2/3
f 98/2/3 94/2/3 97/2/3
f 99/2/3 97/2/3 93/2/3
f 100/2/3 97/2/3 99/2/3
f 103/2/3 102/2/3 101/2/3
f 104/2/3 102/2/3 103/2/3
f 106/2/3 105/2/3 104/2/3
f 107/2/3 105/2/3 106/2/3
f 110/1/3 107/1/3 106/1/3
f 111/1/3 107/1/3 110/1/3
f 112/1/3 109/1/3 108/1/3
f 113/1/3 109/1/3 112/1/3
f 115/2/3 111/2/3 110/2/3
f 116/2/3 111/2/3 115/2/3
f 117/2/3 115/2/3 114/2/3
f 118/2/3 115/2/3 117/2/3
f 121/1/3 120/1/3 119/1/3
f 122/1/3 120/1/3 121/1/3
f 125/1/3 124/1/3 123/1/3
f 126/1/3 124/1/3 125/1/3
f 129/1/3 128/1/3 127/1/3
f 130/1/3 128/1/3 129/1/3
f 131/1/4 132/1/4 133/1/4
f 133/1/4 132/1/4 134/1/4
f 135/1/4 136/1/4 137/1/4
f 137/1/4 136/1/4 138/1/4
f 139/1/4 140/1/4 141/1/4
f 141/1/4 140/1/4 142/1/4
f 143/2/4 144/2/4 145/2/4
f 145/2/4 144/2/4 146/2/4
f 146/2/4 147/2/4 148/2/4
f 148/2/4 147/2/4 149/2/4
f 148/1/4 149/1/4 152/1/4
f 152/1/4 149/1/4 153/1/4
f 150/1/4 151/1/4 154/1/4
f 154/1/4 151/1/4 155/1/4
f 152/2/4 153/2/4 157/2/4
f 157/2/4 153/2/4 158/2/4
f 156/2/4 157/2/4 159/2/4
f 159/2/4 157/2/4 160/2/4
f 161/2/4 162/2/4 163/2/4
f 161/2/4 163/2/4 165/2/4
f 163/2/4 164/2/4 165/2/4
f 165/2/4 164/2/4 166/2/4
f 165/1/4 166/1/4 169/1/4
f 169/1/4 166/1/4 170/1/4
f 167/1/4 168/1/4 171/1/4
f 171/1/4 168/1/4 172/1/4
f 169/2/4 170/2/4 173/2/4
f 173/2/4 170/2/4 174/2/4
f 169/2/4 173/2/4 175/2/4
f 175/2/4 173/2/4 176/2/4
f 181/2/5 178/2/5 177/2/5
f 181/1/5 179/1/5 178/1/5
f 182/2/5 180/2/5 179/2/5
f 182/1/5 179/1/5 181/1/5
f 183/2/5 181/2/5 177/2/5
f 183/2/5 182/2/5 181/2/5
f 184/2/5 182/2/5 183/2/5
f 185/2/5 180/2/5 182/2/5
f 185/2/5 182/2/5 184/2/5
f 186/2/5 180/2/5 185/2/5
f 187/1/5 184/1/5 183/1/5
f 188/2/5 185/2/5 184/2/5
f 188/1/5 184/1/5 187/1/5
f 189/1/5 186/1/5 185/1/5
f 189/2/5 185/2/5 188/2/5
f 190/1/5 186/1/5 189/1/5
f 191/2/5 188/2/5 187/2/5
f 191/2/5 189/2/5 188/2/5
f 191/2/5 190/2/5 189/2/5
f 192/2/5 190/2/5 191/2/5
f 193/2/5 191/2/5 187/2/5
f 194/1/5 192/1/5 191/1/5
f 194/2/5 191/2/5 193/2/5
f 195/2/5 190/2/5 192/2/5
f 195/1/5 192/1/5 194/1/5
f 196/2/5 190/2/5 195/2/5
f 199/1/5 198/1/5 197/1/5
f 200/1/5 198/1/5 199/1/5
f 203/1/5 202/1/5 201/1/5
f 204/1/5 202/1/5 203/1/5
f 207/1/5 206/1/5 205/1/5
f 208/1/5 206/1/5 207/1/5
f 211/1/5 210/1/5 209/1/5
f 212/1/5 210/1/5 211/1/5
f 213/2/6 214/2/6 217/2/6
f 217/2/6 214/2/6 218/2/6
f 215/2/6 216/2/6 219/2/6
f 219/2/6 216/2/6 220/2/6
f 221/2/6 222/2/6 225/2/6
f 225/2/6 222/2/6 226/2/6
f 223/2/6 224/2/6 227/2/6
f 227/2/6 224/2/6 228/2/6
f 229/2/6 230/2/6 234/2/6
f 230/1/6 231/1/6 235/1/6
f 234/2/6 230/2/6 235/2/6
f 231/2/6 232/2/6 236/2/6
f 235/1/6 231/1/6 236/1/6
f 236/2/6 232/2/6 237/2/6
f 233/2/6 234/2/6 239/2/6
f 239/2/6 234/2/6 240/2/6
f 237/2/6 238/2/6 241/2/6
f 241/2/6 238/2/6 242/2/6
f 239/1/6 240/1/6 243/1/6
f 243/1/6 240/1/6 244/1/6
f 241/1/6 242/1/6 245/1/6
f 245/1/6 242/1/6 246/1/6
f 243/2/6 244/2/6 247/2/6
f 247/2/6 244/2/6 248/2/6
f 245/2/6 246/2/6 251/2/6
f 251/2/6 246/2/6 252/2/6
f 248/2/6 249/2/6 253/2/6
f 249/1/6 250/1/6 254/1/6
f 253/2/6 249/2/6 254/2/6
f 250/2/6 251/2/6 255/2/6
f 254/1/6 250/1/6 255/1/6
f 255/2/6 251/2/6 256/2/6
f 257/2/6 258/2/6 261/2/6
f 258/1/6 259/1/6 262/1/6
f 261/2/6 258/2/6 262/2/6
f 259/2/6 260/2/6 263/2/6
f 262/1/6 259/1/6 263/1/6
f 263/2/6 260/2/6 264/2/6
f 261/1/6 262/1/6 265/1/6
f 265/1/6 262/1/6 266/1/6
f 263/1/6 264/1/6 267/1/6
f 267/1/6 264/1/6 268/1/6
f 265/2/6 266/2/6 269/2/6
f 266/1/6 267/1/6 270/1/6
f 269/2/6 266/2/6 270/2/6
f 267/2/6 268/2/6 271/2/6
f 270/1/6 267/1/6 271/1/6
f 271/2/6 268/2/6 272/2/6
f 273/1/6 274/1/6 275/1/6
f 275/1/6 274/1/6 276/1/6
f 277/1/6 278/1/6 279/1/6
f 279/1/6 278/1/6 280/1/6
f 281/1/6 282/1/6 283/1/6
f 283/1/6 282/1/6 284/1/6
f 285/1/6 286/1/6 287/1/6
f 287/1/6 286/1/6 288/1/6
f 289/1/6 290/1/6 291/1/6
f 291/1/6 290/1/6 292/1/6
