# MagicaVoxel @ Ephtracy

# group
o 

# material
mtllib player.mtl
usemtl palette

# normals
vn -1 0 0
vn 1 0 0
vn 0 0 1
vn 0 0 -1
vn 0 -1 0
vn 0 1 0

# texcoords
vt 0.0214844 0.5
vt 0.716797 0.5
vt 0.955078 0.5
vt 0.962891 0.5
vt 0.994141 0.5

# verts
v -0.4 0.3 0.2
v -0.4 0.3 -0.1
v -0.4 0.4 0.3
v -0.4 0.4 0.2
v -0.4 0.4 -0.1
v -0.4 0.4 -0.2
v -0.4 0.7 0.3
v -0.4 0.7 0.2
v -0.4 0.7 -0.1
v -0.4 0.7 -0.2
v -0.4 0.8 0.2
v -0.4 0.8 -0.1
v -0.3 0.3 0.3
v -0.3 0.3 0.2
v -0.3 0.3 -0.1
v -0.3 0.3 -0.2
v -0.3 0.4 0.3
v -0.3 0.4 0.2
v -0.3 0.4 -0.1
v -0.3 0.4 -0.2
v -0.3 0.7 0.3
v -0.3 0.7 0.2
v -0.3 0.7 -0.1
v -0.3 0.7 -0.2
v -0.3 0.8 0.3
v -0.3 0.8 0.2
v -0.3 0.8 -0.1
v -0.3 0.8 -0.2
v -0.2 0.1 0.2
v -0.2 0.1 0.1
v -0.2 0.1 0
v -0.2 0.1 -0.1
v -0.2 0.3 0.2
v -0.2 0.3 0.1
v -0.2 0.3 0
v -0.2 0.3 -0.1
v 0 0.8 0.2
v 0 0.8 -0.1
v 0 0.9 0.2
v 0 0.9 0.1
v 0 0.9 0
v 0 0.9 -0.1
v 0 1 0.1
v 0 1 0
v 0.1 0.9 0.2
v 0.1 0.9 0.1
v 0.1 0.9 0
v 0.1 0.9 -0.1
v 0.1 1 0.2
v 0.1 1 0.1
v 0.1 1 0
v 0.1 1 -0.1
v -0.1 0.2 0.2
v -0.1 0.2 0.1
v -0.1 0.2 0
v -0.1 0.2 -0.1
v -0.1 0.3 0.2
v -0.1 0.3 0.1
v -0.1 0.3 0
v -0.1 0.3 -0.1
v 0 0.1 0.2
v 0 0.1 0.1
v 0 0.1 0
v 0 0.1 -0.1
v 0 0.2 0.2
v 0 0.2 0.1
v 0 0.2 0
v 0 0.2 -0.1
v 0 0.3 0.3
v 0 0.3 0.2
v 0 0.3 -0.1
v 0 0.3 -0.2
v 0 0.4 0.3
v 0 0.4 0.2
v 0 0.4 -0.1
v 0 0.4 -0.2
v 0 0.7 0.3
v 0 0.7 0.2
v 0 0.7 -0.1
v 0 0.7 -0.2
v 0 0.8 0.3
v 0 0.8 0.2
v 0 0.8 -0.1
v 0 0.8 -0.2
v 0.1 0.3 0.2
v 0.1 0.3 -0.1
v 0.1 0.4 0.3
v 0.1 0.4 0.2
v 0.1 0.4 -0.1
v 0.1 0.4 -0.2
v 0.1 0.6 0.2
v 0.1 0.6 -0.1
v 0.1 0.7 0.3
v 0.1 0.7 0.2
v 0.1 0.7 -0.1
v 0.1 0.7 -0.2
v 0.2 0.6 0.2
v 0.2 0.6 -0.1
v 0.2 0.7 0.2
v 0.2 0.7 -0.1
v 0.3 0.8 0.2
v 0.3 0.8 0.1
v 0.3 0.8 0
v 0.3 0.8 -0.1
v 0.3 0.9 0.2
v 0.3 0.9 0.1
v 0.3 0.9 0
v 0.3 0.9 -0.1
v 0.3 1 0.2
v 0.3 1 -0.1
v 0.4 0.7 0.2
v 0.4 0.7 -0.1
v 0.4 0.8 0.2
v 0.4 0.8 -0.1
v -0.4 0.4 0.3
v -0.4 0.7 0.3
v -0.3 0.3 0.3
v -0.3 0.4 0.3
v -0.3 0.7 0.3
v -0.3 0.8 0.3
v 0 0.3 0.3
v 0 0.4 0.3
v 0 0.7 0.3
v 0 0.8 0.3
v 0.1 0.4 0.3
v 0.1 0.7 0.3
v -0.4 0.3 0.2
v -0.4 0.4 0.2
v -0.4 0.7 0.2
v -0.4 0.8 0.2
v -0.3 0.3 0.2
v -0.3 0.4 0.2
v -0.3 0.7 0.2
v -0.3 0.8 0.2
v -0.2 0.1 0.2
v -0.2 0.3 0.2
v -0.1 0.2 0.2
v -0.1 0.3 0.2
v 0 0.1 0.2
v 0 0.2 0.2
v 0 0.3 0.2
v 0 0.4 0.2
v 0 0.7 0.2
v 0 0.8 0.2
v 0 0.9 0.2
v 0.1 0.3 0.2
v 0.1 0.4 0.2
v 0.1 0.6 0.2
v 0.1 0.7 0.2
v 0.1 0.9 0.2
v 0.1 1 0.2
v 0.2 0.6 0.2
v 0.2 0.7 0.2
v 0.2 0.8 0.2
v 0.2 0.9 0.2
v 0.3 0.7 0.2
v 0.3 0.8 0.2
v 0.3 0.9 0.2
v 0.3 1 0.2
v 0.4 0.7 0.2
v 0.4 0.8 0.2
v 0 0.9 0.1
v 0 1 0.1
v 0.1 0.9 0.1
v 0.1 1 0.1
v -0.2 0.1 0
v -0.2 0.3 0
v -0.1 0.2 0
v -0.1 0.3 0
v 0 0.1 0
v 0 0.2 0
v -0.2 0.1 0.1
v -0.2 0.3 0.1
v -0.1 0.2 0.1
v -0.1 0.3 0.1
v 0 0.1 0.1
v 0 0.2 0.1
v 0 0.9 0
v 0 1 0
v 0.1 0.9 0
v 0.1 1 0
v -0.4 0.3 -0.1
v -0.4 0.4 -0.1
v -0.4 0.7 -0.1
v -0.4 0.8 -0.1
v -0.3 0.3 -0.1
v -0.3 0.4 -0.1
v -0.3 0.7 -0.1
v -0.3 0.8 -0.1
v -0.2 0.1 -0.1
v -0.2 0.3 -0.1
v -0.1 0.2 -0.1
v -0.1 0.3 -0.1
v 0 0.1 -0.1
v 0 0.2 -0.1
v 0 0.3 -0.1
v 0 0.4 -0.1
v 0 0.7 -0.1
v 0 0.8 -0.1
v 0 0.9 -0.1
v 0.1 0.3 -0.1
v 0.1 0.4 -0.1
v 0.1 0.6 -0.1
v 0.1 0.7 -0.1
v 0.1 0.9 -0.1
v 0.1 1 -0.1
v 0.2 0.6 -0.1
v 0.2 0.7 -0.1
v 0.2 0.8 -0.1
v 0.2 0.9 -0.1
v 0.3 0.7 -0.1
v 0.3 0.8 -0.1
v 0.3 0.9 -0.1
v 0.3 1 -0.1
v 0.4 0.7 -0.1
v 0.4 0.8 -0.1
v -0.4 0.4 -0.2
v -0.4 0.7 -0.2
v -0.3 0.3 -0.2
v -0.3 0.4 -0.2
v -0.3 0.7 -0.2
v -0.3 0.8 -0.2
v 0 0.3 -0.2
v 0 0.4 -0.2
v 0 0.7 -0.2
v 0 0.8 -0.2
v 0.1 0.4 -0.2
v 0.1 0.7 -0.2
v -0.2 0.1 0.2
v 0 0.1 0.2
v -0.2 0.1 0.1
v 0 0.1 0.1
v -0.2 0.1 0
v 0 0.1 0
v -0.2 0.1 -0.1
v 0 0.1 -0.1
v -0.3 0.3 0.3
v 0 0.3 0.3
v -0.4 0.3 0.2
v -0.3 0.3 0.2
v -0.2 0.3 0.2
v -0.1 0.3 0.2
v 0 0.3 0.2
v 0.1 0.3 0.2
v -0.2 0.3 0.1
v -0.1 0.3 0.1
v -0.2 0.3 0
v -0.1 0.3 0
v -0.4 0.3 -0.1
v -0.3 0.3 -0.1
v -0.2 0.3 -0.1
v -0.1 0.3 -0.1
v 0 0.3 -0.1
v 0.1 0.3 -0.1
v -0.3 0.3 -0.2
v 0 0.3 -0.2
v -0.4 0.4 0.3
v -0.3 0.4 0.3
v 0 0.4 0.3
v 0.1 0.4 0.3
v -0.4 0.4 0.2
v -0.3 0.4 0.2
v 0 0.4 0.2
v 0.1 0.4 0.2
v -0.4 0.4 -0.1
v -0.3 0.4 -0.1
v 0 0.4 -0.1
v 0.1 0.4 -0.1
v -0.4 0.4 -0.2
v -0.3 0.4 -0.2
v 0 0.4 -0.2
v 0.1 0.4 -0.2
v 0.1 0.6 0.2
v 0.2 0.6 0.2
v 0.1 0.6 -0.1
v 0.2 0.6 -0.1
v 0.2 0.7 0.2
v 0.3 0.7 0.2
v 0.4 0.7 0.2
v 0.2 0.7 -0.1
v 0.3 0.7 -0.1
v 0.4 0.7 -0.1
v -0.1 0.2 0.2
v 0 0.2 0.2
v -0.1 0.2 0.1
v 0 0.2 0.1
v -0.1 0.2 0
v 0 0.2 0
v -0.1 0.2 -0.1
v 0 0.2 -0.1
v -0.4 0.7 0.3
v -0.3 0.7 0.3
v 0 0.7 0.3
v 0.1 0.7 0.3
v -0.4 0.7 0.2
v -0.3 0.7 0.2
v 0 0.7 0.2
v 0.1 0.7 0.2
v -0.4 0.7 -0.1
v -0.3 0.7 -0.1
v 0 0.7 -0.1
v 0.1 0.7 -0.1
v -0.4 0.7 -0.2
v -0.3 0.7 -0.2
v 0 0.7 -0.2
v 0.1 0.7 -0.2
v -0.3 0.8 0.3
v 0 0.8 0.3
v -0.4 0.8 0.2
v -0.3 0.8 0.2
v 0 0.8 0.2
v 0.3 0.8 0.2
v 0.4 0.8 0.2
v 0.3 0.8 0.1
v 0.3 0.8 0
v -0.4 0.8 -0.1
v -0.3 0.8 -0.1
v 0 0.8 -0.1
v 0.3 0.8 -0.1
v 0.4 0.8 -0.1
v -0.3 0.8 -0.2
v 0 0.8 -0.2
v 0 0.9 0.2
v 0.1 0.9 0.2
v 0 0.9 0.1
v 0.1 0.9 0.1
v 0 0.9 0
v 0.1 0.9 0
v 0 0.9 -0.1
v 0.1 0.9 -0.1
v 0.1 1 0.2
v 0.3 1 0.2
v 0 1 0.1
v 0.1 1 0.1
v 0 1 0
v 0.1 1 0
v 0.1 1 -0.1
v 0.3 1 -0.1

# faces
f 4/4/1 2/4/1 1/4/1
f 5/4/1 2/4/1 4/4/1
f 7/4/1 4/4/1 3/4/1
f 7/4/1 6/4/1 5/4/1
f 7/4/1 5/4/1 4/4/1
f 8/4/1 6/4/1 7/4/1
f 9/4/1 6/4/1 8/4/1
f 10/4/1 6/4/1 9/4/1
f 11/4/1 9/4/1 8/4/1
f 12/4/1 9/4/1 11/4/1
f 17/4/1 14/4/1 13/4/1
f 18/4/1 14/4/1 17/4/1
f 19/4/1 16/4/1 15/4/1
f 20/4/1 16/4/1 19/4/1
f 25/4/1 22/4/1 21/4/1
f 26/4/1 22/4/1 25/4/1
f 27/4/1 24/4/1 23/4/1
f 28/4/1 24/4/1 27/4/1
f 33/5/1 30/5/1 29/5/1
f 34/5/1 30/5/1 33/5/1
f 35/5/1 32/5/1 31/5/1
f 36/5/1 32/5/1 35/5/1
f 39/4/1 38/4/1 37/4/1
f 40/4/1 38/4/1 39/4/1
f 41/4/1 38/4/1 40/4/1
f 42/4/1 38/4/1 41/4/1
f 43/4/1 41/4/1 40/4/1
f 44/4/1 41/4/1 43/4/1
f 49/4/1 46/4/1 45/4/1
f 50/4/1 46/4/1 49/4/1
f 51/4/1 48/4/1 47/4/1
f 52/4/1 48/4/1 51/4/1
f 53/5/2 54/5/2 57/5/2
f 57/5/2 54/5/2 58/5/2
f 55/5/2 56/5/2 59/5/2
f 59/5/2 56/5/2 60/5/2
f 61/5/2 62/5/2 65/5/2
f 65/5/2 62/5/2 66/5/2
f 63/5/2 64/5/2 67/5/2
f 67/5/2 64/5/2 68/5/2
f 69/4/2 70/4/2 73/4/2
f 73/4/2 70/4/2 74/4/2
f 71/4/2 72/4/2 75/4/2
f 75/4/2 72/4/2 76/4/2
f 77/4/2 78/4/2 81/4/2
f 81/4/2 78/4/2 82/4/2
f 79/4/2 80/4/2 83/4/2
f 83/4/2 80/4/2 84/4/2
f 85/4/2 86/4/2 88/4/2
f 88/4/2 86/4/2 89/4/2
f 87/4/2 88/4/2 91/4/2
f 89/4/2 90/4/2 91/4/2
f 88/4/2 89/4/2 91/4/2
f 91/4/2 90/4/2 92/4/2
f 87/4/2 91/4/2 93/4/2
f 93/4/2 91/4/2 94/4/2
f 92/4/2 90/4/2 95/4/2
f 95/4/2 90/4/2 96/4/2
f 97/4/2 98/4/2 99/4/2
f 99/4/2 98/4/2 100/4/2
f 101/3/2 102/3/2 105/3/2
f 102/4/2 103/4/2 106/4/2
f 105/3/2 102/3/2 106/3/2
f 103/3/2 104/3/2 107/3/2
f 106/4/2 103/4/2 107/4/2
f 107/3/2 104/3/2 108/3/2
f 105/4/2 106/4/2 109/4/2
f 106/4/2 107/4/2 109/4/2
f 107/4/2 108/4/2 109/4/2
f 109/4/2 108/4/2 110/4/2
f 111/1/2 112/1/2 113/1/2
f 113/1/2 112/1/2 114/1/2
f 118/4/3 116/4/3 115/4/3
f 119/4/3 116/4/3 118/4/3
f 121/4/3 118/4/3 117/4/3
f 121/4/3 120/4/3 119/4/3
f 121/4/3 119/4/3 118/4/3
f 122/4/3 120/4/3 121/4/3
f 123/4/3 120/4/3 122/4/3
f 124/4/3 120/4/3 123/4/3
f 125/4/3 123/4/3 122/4/3
f 126/4/3 123/4/3 125/4/3
f 131/4/3 128/4/3 127/4/3
f 132/4/3 128/4/3 131/4/3
f 133/4/3 130/4/3 129/4/3
f 134/4/3 130/4/3 133/4/3
f 137/5/3 136/5/3 135/5/3
f 138/5/3 136/5/3 137/5/3
f 139/5/3 137/5/3 135/5/3
f 140/5/3 137/5/3 139/5/3
f 146/4/3 142/4/3 141/4/3
f 147/4/3 142/4/3 146/4/3
f 149/4/3 144/4/3 143/4/3
f 149/4/3 145/4/3 144/4/3
f 150/4/3 145/4/3 149/4/3
f 152/4/3 151/4/3 150/4/3
f 152/4/3 150/4/3 149/4/3
f 152/4/3 149/4/3 148/4/3
f 153/4/3 151/4/3 152/4/3
f 154/4/3 151/4/3 153/4/3
f 155/4/3 151/4/3 154/4/3
f 156/4/3 154/4/3 153/4/3
f 157/3/3 155/3/3 154/3/3
f 157/4/3 154/4/3 156/4/3
f 158/4/3 151/4/3 155/4/3
f 158/3/3 155/3/3 157/3/3
f 159/4/3 151/4/3 158/4/3
f 160/1/3 157/1/3 156/1/3
f 161/1/3 157/1/3 160/1/3
f 164/4/3 163/4/3 162/4/3
f 165/4/3 163/4/3 164/4/3
f 168/5/3 167/5/3 166/5/3
f 169/5/3 167/5/3 168/5/3
f 170/5/3 168/5/3 166/5/3
f 171/5/3 168/5/3 170/5/3
f 172/5/4 173/5/4 174/5/4
f 174/5/4 173/5/4 175/5/4
f 172/5/4 174/5/4 176/5/4
f 176/5/4 174/5/4 177/5/4
f 178/4/4 179/4/4 180/4/4
f 180/4/4 179/4/4 181/4/4
f 182/4/4 183/4/4 186/4/4
f 186/4/4 183/4/4 187/4/4
f 184/4/4 185/4/4 188/4/4
f 188/4/4 185/4/4 189/4/4
f 190/5/4 191/5/4 192/5/4
f 192/5/4 191/5/4 193/5/4
f 190/5/4 192/5/4 194/5/4
f 194/5/4 192/5/4 195/5/4
f 196/4/4 197/4/4 201/4/4
f 201/4/4 197/4/4 202/4/4
f 198/4/4 199/4/4 204/4/4
f 199/4/4 200/4/4 204/4/4
f 204/4/4 200/4/4 205/4/4
f 205/4/4 206/4/4 207/4/4
f 204/4/4 205/4/4 207/4/4
f 203/4/4 204/4/4 207/4/4
f 207/4/4 206/4/4 208/4/4
f 208/4/4 206/4/4 209/4/4
f 209/4/4 206/4/4 210/4/4
f 208/4/4 209/4/4 211/4/4
f 209/3/4 210/3/4 212/3/4
f 211/4/4 209/4/4 212/4/4
f 210/4/4 206/4/4 213/4/4
f 212/3/4 210/3/4 213/3/4
f 213/4/4 206/4/4 214/4/4
f 211/1/4 212/1/4 215/1/4
f 215/1/4 212/1/4 216/1/4
f 217/4/4 218/4/4 220/4/4
f 220/4/4 218/4/4 221/4/4
f 219/4/4 220/4/4 223/4/4
f 221/4/4 222/4/4 223/4/4
f 220/4/4 221/4/4 223/4/4
f 223/4/4 222/4/4 224/4/4
f 224/4/4 222/4/4 225/4/4
f 225/4/4 222/4/4 226/4/4
f 224/4/4 225/4/4 227/4/4
f 227/4/4 225/4/4 228/4/4
f 231/5/5 230/5/5 229/5/5
f 232/5/5 230/5/5 231/5/5
f 235/5/5 234/5/5 233/5/5
f 236/5/5 234/5/5 235/5/5
f 240/4/5 238/4/5 237/4/5
f 241/4/5 238/4/5 240/4/5
f 242/4/5 238/4/5 241/4/5
f 243/4/5 238/4/5 242/4/5
f 245/4/5 240/4/5 239/4/5
f 245/4/5 241/4/5 240/4/5
f 246/4/5 244/4/5 243/4/5
f 246/4/5 243/4/5 242/4/5
f 247/4/5 245/4/5 239/4/5
f 247/4/5 246/4/5 245/4/5
f 248/4/5 244/4/5 246/4/5
f 248/4/5 246/4/5 247/4/5
f 249/4/5 247/4/5 239/4/5
f 250/4/5 247/4/5 249/4/5
f 251/4/5 247/4/5 250/4/5
f 252/4/5 244/4/5 248/4/5
f 253/4/5 244/4/5 252/4/5
f 254/4/5 244/4/5 253/4/5
f 255/4/5 251/4/5 250/4/5
f 255/4/5 253/4/5 252/4/5
f 255/4/5 252/4/5 251/4/5
f 256/4/5 253/4/5 255/4/5
f 261/4/5 258/4/5 257/4/5
f 262/4/5 258/4/5 261/4/5
f 263/4/5 260/4/5 259/4/5
f 264/4/5 260/4/5 263/4/5
f 269/4/5 266/4/5 265/4/5
f 270/4/5 266/4/5 269/4/5
f 271/4/5 268/4/5 267/4/5
f 272/4/5 268/4/5 271/4/5
f 275/4/5 274/4/5 273/4/5
f 276/4/5 274/4/5 275/4/5
f 280/4/5 278/4/5 277/4/5
f 281/1/5 279/1/5 278/1/5
f 281/4/5 278/4/5 280/4/5
f 282/1/5 279/1/5 281/1/5
f 283/5/6 284/5/6 285/5/6
f 285/5/6 284/5/6 286/5/6
f 287/5/6 288/5/6 289/5/6
f 289/5/6 288/5/6 290/5/6
f 291/4/6 292/4/6 295/4/6
f 295/4/6 292/4/6 296/4/6
f 293/4/6 294/4/6 297/4/6
f 297/4/6 294/4/6 298/4/6
f 299/4/6 300/4/6 303/4/6
f 303/4/6 300/4/6 304/4/6
f 301/4/6 302/4/6 305/4/6
f 305/4/6 302/4/6 306/4/6
f 307/4/6 308/4/6 310/4/6
f 310/4/6 308/4/6 311/4/6
f 312/1/6 313/1/6 314/1/6
f 314/1/6 313/1/6 315/1/6
f 309/4/6 310/4/6 316/4/6
f 310/4/6 311/4/6 316/4/6
f 316/4/6 311/4/6 317/4/6
f 317/4/6 311/4/6 318/4/6
f 315/1/6 313/1/6 319/1/6
f 319/1/6 313/1/6 320/1/6
f 317/4/6 318/4/6 321/4/6
f 321/4/6 318/4/6 322/4/6
f 323/4/6 324/4/6 325/4/6
f 325/4/6 324/4/6 326/4/6
f 327/4/6 328/4/6 329/4/6
f 329/4/6 328/4/6 330/4/6
f 331/4/6 332/4/6 334/4/6
f 333/4/6 334/4/6 335/4/6
f 334/4/6 332/4/6 336/4/6
f 335/4/6 334/4/6 336/4/6
f 336/4/6 332/4/6 337/4/6
f 337/4/6 332/4/6 338/4/6
